<mxfile host="app.diagrams.net" modified="2020-11-05T01:20:44.383Z" agent="5.0 (Macintosh; Intel Mac OS X 10_13_6) AppleWebKit/537.36 (KHTML, like Gecko) Chrome/85.0.4183.102 Safari/537.36" etag="w-ncWKhYUjBedFOuZTbQ" version="13.7.9" type="github">
  <diagram name="Page-1" id="bd83a815-5ea8-2e97-e5ec-87c9f400f2fa">
    <mxGraphModel dx="1678" dy="972" grid="1" gridSize="10" guides="1" tooltips="1" connect="1" arrows="1" fold="1" page="1" pageScale="1.5" pageWidth="1169" pageHeight="826" background="#ffffff" math="0" shadow="0">
      <root>
        <mxCell id="0" style=";html=1;" />
        <mxCell id="1" style=";html=1;" parent="0" />
        <mxCell id="ib0y8VWLwrtvh4IZrPpm-1" value="" style="shape=table;html=1;whiteSpace=wrap;startSize=0;container=1;collapsible=0;childLayout=tableLayout;fillColor=#b1ddf0;strokeColor=#10739e;align=left;fontSize=16;" vertex="1" parent="1">
          <mxGeometry x="200" y="50" width="930" height="696" as="geometry" />
        </mxCell>
        <mxCell id="ib0y8VWLwrtvh4IZrPpm-2" value="" style="shape=partialRectangle;html=1;whiteSpace=wrap;collapsible=0;dropTarget=0;pointerEvents=0;fillColor=none;top=0;left=0;bottom=0;right=0;points=[[0,0.5],[1,0.5]];portConstraint=eastwest;align=left;fontSize=16;" vertex="1" parent="ib0y8VWLwrtvh4IZrPpm-1">
          <mxGeometry width="930" height="46" as="geometry" />
        </mxCell>
        <mxCell id="ib0y8VWLwrtvh4IZrPpm-3" value="%rax" style="shape=partialRectangle;html=1;whiteSpace=wrap;connectable=0;overflow=hidden;fillColor=none;top=0;left=0;bottom=0;right=0;align=left;fontSize=16;" vertex="1" parent="ib0y8VWLwrtvh4IZrPpm-2">
          <mxGeometry width="187" height="46" as="geometry" />
        </mxCell>
        <mxCell id="ib0y8VWLwrtvh4IZrPpm-4" value="%eax" style="shape=partialRectangle;html=1;whiteSpace=wrap;connectable=0;overflow=hidden;fillColor=none;top=0;left=0;bottom=0;right=0;align=left;fontSize=16;" vertex="1" parent="ib0y8VWLwrtvh4IZrPpm-2">
          <mxGeometry x="187" width="185" height="46" as="geometry" />
        </mxCell>
        <mxCell id="ib0y8VWLwrtvh4IZrPpm-5" value="%ax" style="shape=partialRectangle;html=1;whiteSpace=wrap;connectable=0;overflow=hidden;fillColor=none;top=0;left=0;bottom=0;right=0;align=left;fontSize=16;" vertex="1" parent="ib0y8VWLwrtvh4IZrPpm-2">
          <mxGeometry x="372" width="187" height="46" as="geometry" />
        </mxCell>
        <mxCell id="ib0y8VWLwrtvh4IZrPpm-6" value="%al" style="shape=partialRectangle;html=1;whiteSpace=wrap;connectable=0;overflow=hidden;fillColor=none;top=0;left=0;bottom=0;right=0;align=left;fontSize=16;" vertex="1" parent="ib0y8VWLwrtvh4IZrPpm-2">
          <mxGeometry x="559" width="185" height="46" as="geometry" />
        </mxCell>
        <mxCell id="ib0y8VWLwrtvh4IZrPpm-25" value="返回值" style="shape=partialRectangle;html=1;whiteSpace=wrap;connectable=0;overflow=hidden;fillColor=none;top=0;left=0;bottom=0;right=0;align=left;fontSize=16;" vertex="1" parent="ib0y8VWLwrtvh4IZrPpm-2">
          <mxGeometry x="744" width="186" height="46" as="geometry" />
        </mxCell>
        <mxCell id="ib0y8VWLwrtvh4IZrPpm-7" value="" style="shape=partialRectangle;html=1;whiteSpace=wrap;collapsible=0;dropTarget=0;pointerEvents=0;fillColor=none;top=0;left=0;bottom=0;right=0;points=[[0,0.5],[1,0.5]];portConstraint=eastwest;align=left;fontSize=16;" vertex="1" parent="ib0y8VWLwrtvh4IZrPpm-1">
          <mxGeometry y="46" width="930" height="49" as="geometry" />
        </mxCell>
        <mxCell id="ib0y8VWLwrtvh4IZrPpm-8" value="%rbx" style="shape=partialRectangle;html=1;whiteSpace=wrap;connectable=0;overflow=hidden;fillColor=none;top=0;left=0;bottom=0;right=0;align=left;fontSize=16;" vertex="1" parent="ib0y8VWLwrtvh4IZrPpm-7">
          <mxGeometry width="187" height="49" as="geometry" />
        </mxCell>
        <mxCell id="ib0y8VWLwrtvh4IZrPpm-9" value="%ebx" style="shape=partialRectangle;html=1;whiteSpace=wrap;connectable=0;overflow=hidden;fillColor=none;top=0;left=0;bottom=0;right=0;align=left;fontSize=16;" vertex="1" parent="ib0y8VWLwrtvh4IZrPpm-7">
          <mxGeometry x="187" width="185" height="49" as="geometry" />
        </mxCell>
        <mxCell id="ib0y8VWLwrtvh4IZrPpm-10" value="%bx" style="shape=partialRectangle;html=1;whiteSpace=wrap;connectable=0;overflow=hidden;fillColor=none;top=0;left=0;bottom=0;right=0;align=left;fontSize=16;" vertex="1" parent="ib0y8VWLwrtvh4IZrPpm-7">
          <mxGeometry x="372" width="187" height="49" as="geometry" />
        </mxCell>
        <mxCell id="ib0y8VWLwrtvh4IZrPpm-11" value="%bl" style="shape=partialRectangle;html=1;whiteSpace=wrap;connectable=0;overflow=hidden;fillColor=none;top=0;left=0;bottom=0;right=0;align=left;fontSize=16;" vertex="1" parent="ib0y8VWLwrtvh4IZrPpm-7">
          <mxGeometry x="559" width="185" height="49" as="geometry" />
        </mxCell>
        <mxCell id="ib0y8VWLwrtvh4IZrPpm-26" value="被调用者保存" style="shape=partialRectangle;html=1;whiteSpace=wrap;connectable=0;overflow=hidden;fillColor=none;top=0;left=0;bottom=0;right=0;align=left;fontSize=16;" vertex="1" parent="ib0y8VWLwrtvh4IZrPpm-7">
          <mxGeometry x="744" width="186" height="49" as="geometry" />
        </mxCell>
        <mxCell id="ib0y8VWLwrtvh4IZrPpm-20" style="shape=partialRectangle;html=1;whiteSpace=wrap;collapsible=0;dropTarget=0;pointerEvents=0;fillColor=none;top=0;left=0;bottom=0;right=0;points=[[0,0.5],[1,0.5]];portConstraint=eastwest;align=left;fontSize=16;" vertex="1" parent="ib0y8VWLwrtvh4IZrPpm-1">
          <mxGeometry y="95" width="930" height="49" as="geometry" />
        </mxCell>
        <mxCell id="ib0y8VWLwrtvh4IZrPpm-21" value="%rcx" style="shape=partialRectangle;html=1;whiteSpace=wrap;connectable=0;overflow=hidden;fillColor=none;top=0;left=0;bottom=0;right=0;align=left;fontSize=16;" vertex="1" parent="ib0y8VWLwrtvh4IZrPpm-20">
          <mxGeometry width="187" height="49" as="geometry" />
        </mxCell>
        <mxCell id="ib0y8VWLwrtvh4IZrPpm-22" value="%ecx" style="shape=partialRectangle;html=1;whiteSpace=wrap;connectable=0;overflow=hidden;fillColor=none;top=0;left=0;bottom=0;right=0;align=left;fontSize=16;" vertex="1" parent="ib0y8VWLwrtvh4IZrPpm-20">
          <mxGeometry x="187" width="185" height="49" as="geometry" />
        </mxCell>
        <mxCell id="ib0y8VWLwrtvh4IZrPpm-23" value="%cx" style="shape=partialRectangle;html=1;whiteSpace=wrap;connectable=0;overflow=hidden;fillColor=none;top=0;left=0;bottom=0;right=0;align=left;fontSize=16;" vertex="1" parent="ib0y8VWLwrtvh4IZrPpm-20">
          <mxGeometry x="372" width="187" height="49" as="geometry" />
        </mxCell>
        <mxCell id="ib0y8VWLwrtvh4IZrPpm-24" value="%cl" style="shape=partialRectangle;html=1;whiteSpace=wrap;connectable=0;overflow=hidden;fillColor=none;top=0;left=0;bottom=0;right=0;align=left;fontSize=16;" vertex="1" parent="ib0y8VWLwrtvh4IZrPpm-20">
          <mxGeometry x="559" width="185" height="49" as="geometry" />
        </mxCell>
        <mxCell id="ib0y8VWLwrtvh4IZrPpm-27" style="shape=partialRectangle;html=1;whiteSpace=wrap;connectable=0;overflow=hidden;fillColor=none;top=0;left=0;bottom=0;right=0;align=left;fontSize=16;" vertex="1" parent="ib0y8VWLwrtvh4IZrPpm-20">
          <mxGeometry x="744" width="186" height="49" as="geometry" />
        </mxCell>
        <mxCell id="ib0y8VWLwrtvh4IZrPpm-12" value="" style="shape=partialRectangle;html=1;whiteSpace=wrap;collapsible=0;dropTarget=0;pointerEvents=0;fillColor=none;top=0;left=0;bottom=0;right=0;points=[[0,0.5],[1,0.5]];portConstraint=eastwest;align=left;fontSize=16;" vertex="1" parent="ib0y8VWLwrtvh4IZrPpm-1">
          <mxGeometry y="144" width="930" height="46" as="geometry" />
        </mxCell>
        <mxCell id="ib0y8VWLwrtvh4IZrPpm-13" value="%rsi" style="shape=partialRectangle;html=1;whiteSpace=wrap;connectable=0;overflow=hidden;fillColor=none;top=0;left=0;bottom=0;right=0;align=left;fontSize=16;" vertex="1" parent="ib0y8VWLwrtvh4IZrPpm-12">
          <mxGeometry width="187" height="46" as="geometry" />
        </mxCell>
        <mxCell id="ib0y8VWLwrtvh4IZrPpm-14" value="%esi" style="shape=partialRectangle;html=1;whiteSpace=wrap;connectable=0;overflow=hidden;fillColor=none;top=0;left=0;bottom=0;right=0;align=left;fontSize=16;" vertex="1" parent="ib0y8VWLwrtvh4IZrPpm-12">
          <mxGeometry x="187" width="185" height="46" as="geometry" />
        </mxCell>
        <mxCell id="ib0y8VWLwrtvh4IZrPpm-15" value="%si" style="shape=partialRectangle;html=1;whiteSpace=wrap;connectable=0;overflow=hidden;fillColor=none;top=0;left=0;bottom=0;right=0;align=left;fontSize=16;" vertex="1" parent="ib0y8VWLwrtvh4IZrPpm-12">
          <mxGeometry x="372" width="187" height="46" as="geometry" />
        </mxCell>
        <mxCell id="ib0y8VWLwrtvh4IZrPpm-16" value="%sil" style="shape=partialRectangle;html=1;whiteSpace=wrap;connectable=0;overflow=hidden;fillColor=none;top=0;left=0;bottom=0;right=0;align=left;fontSize=16;" vertex="1" parent="ib0y8VWLwrtvh4IZrPpm-12">
          <mxGeometry x="559" width="185" height="46" as="geometry" />
        </mxCell>
        <mxCell id="ib0y8VWLwrtvh4IZrPpm-28" style="shape=partialRectangle;html=1;whiteSpace=wrap;connectable=0;overflow=hidden;fillColor=none;top=0;left=0;bottom=0;right=0;align=left;fontSize=16;" vertex="1" parent="ib0y8VWLwrtvh4IZrPpm-12">
          <mxGeometry x="744" width="186" height="46" as="geometry" />
        </mxCell>
        <mxCell id="ib0y8VWLwrtvh4IZrPpm-71" style="shape=partialRectangle;html=1;whiteSpace=wrap;collapsible=0;dropTarget=0;pointerEvents=0;fillColor=none;top=0;left=0;bottom=0;right=0;points=[[0,0.5],[1,0.5]];portConstraint=eastwest;align=left;fontSize=16;" vertex="1" parent="ib0y8VWLwrtvh4IZrPpm-1">
          <mxGeometry y="190" width="930" height="46" as="geometry" />
        </mxCell>
        <mxCell id="ib0y8VWLwrtvh4IZrPpm-72" value="%rdi" style="shape=partialRectangle;html=1;whiteSpace=wrap;connectable=0;overflow=hidden;fillColor=none;top=0;left=0;bottom=0;right=0;align=left;fontSize=16;" vertex="1" parent="ib0y8VWLwrtvh4IZrPpm-71">
          <mxGeometry width="187" height="46" as="geometry" />
        </mxCell>
        <mxCell id="ib0y8VWLwrtvh4IZrPpm-73" value="%edi" style="shape=partialRectangle;html=1;whiteSpace=wrap;connectable=0;overflow=hidden;fillColor=none;top=0;left=0;bottom=0;right=0;align=left;fontSize=16;" vertex="1" parent="ib0y8VWLwrtvh4IZrPpm-71">
          <mxGeometry x="187" width="185" height="46" as="geometry" />
        </mxCell>
        <mxCell id="ib0y8VWLwrtvh4IZrPpm-74" value="%di" style="shape=partialRectangle;html=1;whiteSpace=wrap;connectable=0;overflow=hidden;fillColor=none;top=0;left=0;bottom=0;right=0;align=left;fontSize=16;" vertex="1" parent="ib0y8VWLwrtvh4IZrPpm-71">
          <mxGeometry x="372" width="187" height="46" as="geometry" />
        </mxCell>
        <mxCell id="ib0y8VWLwrtvh4IZrPpm-75" value="%dil" style="shape=partialRectangle;html=1;whiteSpace=wrap;connectable=0;overflow=hidden;fillColor=none;top=0;left=0;bottom=0;right=0;align=left;fontSize=16;" vertex="1" parent="ib0y8VWLwrtvh4IZrPpm-71">
          <mxGeometry x="559" width="185" height="46" as="geometry" />
        </mxCell>
        <mxCell id="ib0y8VWLwrtvh4IZrPpm-76" style="shape=partialRectangle;html=1;whiteSpace=wrap;connectable=0;overflow=hidden;fillColor=none;top=0;left=0;bottom=0;right=0;align=left;fontSize=16;" vertex="1" parent="ib0y8VWLwrtvh4IZrPpm-71">
          <mxGeometry x="744" width="186" height="46" as="geometry" />
        </mxCell>
        <mxCell id="ib0y8VWLwrtvh4IZrPpm-65" style="shape=partialRectangle;html=1;whiteSpace=wrap;collapsible=0;dropTarget=0;pointerEvents=0;fillColor=none;top=0;left=0;bottom=0;right=0;points=[[0,0.5],[1,0.5]];portConstraint=eastwest;align=left;fontSize=16;" vertex="1" parent="ib0y8VWLwrtvh4IZrPpm-1">
          <mxGeometry y="236" width="930" height="46" as="geometry" />
        </mxCell>
        <mxCell id="ib0y8VWLwrtvh4IZrPpm-66" value="%rbp" style="shape=partialRectangle;html=1;whiteSpace=wrap;connectable=0;overflow=hidden;fillColor=none;top=0;left=0;bottom=0;right=0;align=left;fontSize=16;" vertex="1" parent="ib0y8VWLwrtvh4IZrPpm-65">
          <mxGeometry width="187" height="46" as="geometry" />
        </mxCell>
        <mxCell id="ib0y8VWLwrtvh4IZrPpm-67" value="%ebp" style="shape=partialRectangle;html=1;whiteSpace=wrap;connectable=0;overflow=hidden;fillColor=none;top=0;left=0;bottom=0;right=0;align=left;fontSize=16;" vertex="1" parent="ib0y8VWLwrtvh4IZrPpm-65">
          <mxGeometry x="187" width="185" height="46" as="geometry" />
        </mxCell>
        <mxCell id="ib0y8VWLwrtvh4IZrPpm-68" value="%bp" style="shape=partialRectangle;html=1;whiteSpace=wrap;connectable=0;overflow=hidden;fillColor=none;top=0;left=0;bottom=0;right=0;align=left;fontSize=16;" vertex="1" parent="ib0y8VWLwrtvh4IZrPpm-65">
          <mxGeometry x="372" width="187" height="46" as="geometry" />
        </mxCell>
        <mxCell id="ib0y8VWLwrtvh4IZrPpm-69" value="%bpl" style="shape=partialRectangle;html=1;whiteSpace=wrap;connectable=0;overflow=hidden;fillColor=none;top=0;left=0;bottom=0;right=0;align=left;fontSize=16;" vertex="1" parent="ib0y8VWLwrtvh4IZrPpm-65">
          <mxGeometry x="559" width="185" height="46" as="geometry" />
        </mxCell>
        <mxCell id="ib0y8VWLwrtvh4IZrPpm-70" style="shape=partialRectangle;html=1;whiteSpace=wrap;connectable=0;overflow=hidden;fillColor=none;top=0;left=0;bottom=0;right=0;align=left;fontSize=16;" vertex="1" parent="ib0y8VWLwrtvh4IZrPpm-65">
          <mxGeometry x="744" width="186" height="46" as="geometry" />
        </mxCell>
        <mxCell id="ib0y8VWLwrtvh4IZrPpm-59" style="shape=partialRectangle;html=1;whiteSpace=wrap;collapsible=0;dropTarget=0;pointerEvents=0;fillColor=none;top=0;left=0;bottom=0;right=0;points=[[0,0.5],[1,0.5]];portConstraint=eastwest;align=left;fontSize=16;" vertex="1" parent="ib0y8VWLwrtvh4IZrPpm-1">
          <mxGeometry y="282" width="930" height="46" as="geometry" />
        </mxCell>
        <mxCell id="ib0y8VWLwrtvh4IZrPpm-60" value="%rsp" style="shape=partialRectangle;html=1;whiteSpace=wrap;connectable=0;overflow=hidden;fillColor=none;top=0;left=0;bottom=0;right=0;align=left;fontSize=16;" vertex="1" parent="ib0y8VWLwrtvh4IZrPpm-59">
          <mxGeometry width="187" height="46" as="geometry" />
        </mxCell>
        <mxCell id="ib0y8VWLwrtvh4IZrPpm-61" value="%esp" style="shape=partialRectangle;html=1;whiteSpace=wrap;connectable=0;overflow=hidden;fillColor=none;top=0;left=0;bottom=0;right=0;align=left;fontSize=16;" vertex="1" parent="ib0y8VWLwrtvh4IZrPpm-59">
          <mxGeometry x="187" width="185" height="46" as="geometry" />
        </mxCell>
        <mxCell id="ib0y8VWLwrtvh4IZrPpm-62" value="%sp" style="shape=partialRectangle;html=1;whiteSpace=wrap;connectable=0;overflow=hidden;fillColor=none;top=0;left=0;bottom=0;right=0;align=left;fontSize=16;" vertex="1" parent="ib0y8VWLwrtvh4IZrPpm-59">
          <mxGeometry x="372" width="187" height="46" as="geometry" />
        </mxCell>
        <mxCell id="ib0y8VWLwrtvh4IZrPpm-63" value="%spl" style="shape=partialRectangle;html=1;whiteSpace=wrap;connectable=0;overflow=hidden;fillColor=none;top=0;left=0;bottom=0;right=0;align=left;fontSize=16;" vertex="1" parent="ib0y8VWLwrtvh4IZrPpm-59">
          <mxGeometry x="559" width="185" height="46" as="geometry" />
        </mxCell>
        <mxCell id="ib0y8VWLwrtvh4IZrPpm-64" style="shape=partialRectangle;html=1;whiteSpace=wrap;connectable=0;overflow=hidden;fillColor=none;top=0;left=0;bottom=0;right=0;align=left;fontSize=16;" vertex="1" parent="ib0y8VWLwrtvh4IZrPpm-59">
          <mxGeometry x="744" width="186" height="46" as="geometry" />
        </mxCell>
        <mxCell id="ib0y8VWLwrtvh4IZrPpm-53" style="shape=partialRectangle;html=1;whiteSpace=wrap;collapsible=0;dropTarget=0;pointerEvents=0;fillColor=none;top=0;left=0;bottom=0;right=0;points=[[0,0.5],[1,0.5]];portConstraint=eastwest;align=left;fontSize=16;" vertex="1" parent="ib0y8VWLwrtvh4IZrPpm-1">
          <mxGeometry y="328" width="930" height="46" as="geometry" />
        </mxCell>
        <mxCell id="ib0y8VWLwrtvh4IZrPpm-54" value="%r8" style="shape=partialRectangle;html=1;whiteSpace=wrap;connectable=0;overflow=hidden;fillColor=none;top=0;left=0;bottom=0;right=0;align=left;fontSize=16;" vertex="1" parent="ib0y8VWLwrtvh4IZrPpm-53">
          <mxGeometry width="187" height="46" as="geometry" />
        </mxCell>
        <mxCell id="ib0y8VWLwrtvh4IZrPpm-55" value="%r8d" style="shape=partialRectangle;html=1;whiteSpace=wrap;connectable=0;overflow=hidden;fillColor=none;top=0;left=0;bottom=0;right=0;align=left;fontSize=16;" vertex="1" parent="ib0y8VWLwrtvh4IZrPpm-53">
          <mxGeometry x="187" width="185" height="46" as="geometry" />
        </mxCell>
        <mxCell id="ib0y8VWLwrtvh4IZrPpm-56" value="%r8w" style="shape=partialRectangle;html=1;whiteSpace=wrap;connectable=0;overflow=hidden;fillColor=none;top=0;left=0;bottom=0;right=0;align=left;fontSize=16;" vertex="1" parent="ib0y8VWLwrtvh4IZrPpm-53">
          <mxGeometry x="372" width="187" height="46" as="geometry" />
        </mxCell>
        <mxCell id="ib0y8VWLwrtvh4IZrPpm-57" value="%r8b" style="shape=partialRectangle;html=1;whiteSpace=wrap;connectable=0;overflow=hidden;fillColor=none;top=0;left=0;bottom=0;right=0;align=left;fontSize=16;" vertex="1" parent="ib0y8VWLwrtvh4IZrPpm-53">
          <mxGeometry x="559" width="185" height="46" as="geometry" />
        </mxCell>
        <mxCell id="ib0y8VWLwrtvh4IZrPpm-58" style="shape=partialRectangle;html=1;whiteSpace=wrap;connectable=0;overflow=hidden;fillColor=none;top=0;left=0;bottom=0;right=0;align=left;fontSize=16;" vertex="1" parent="ib0y8VWLwrtvh4IZrPpm-53">
          <mxGeometry x="744" width="186" height="46" as="geometry" />
        </mxCell>
        <mxCell id="ib0y8VWLwrtvh4IZrPpm-47" style="shape=partialRectangle;html=1;whiteSpace=wrap;collapsible=0;dropTarget=0;pointerEvents=0;fillColor=none;top=0;left=0;bottom=0;right=0;points=[[0,0.5],[1,0.5]];portConstraint=eastwest;align=left;fontSize=16;" vertex="1" parent="ib0y8VWLwrtvh4IZrPpm-1">
          <mxGeometry y="374" width="930" height="46" as="geometry" />
        </mxCell>
        <mxCell id="ib0y8VWLwrtvh4IZrPpm-48" value="%r9" style="shape=partialRectangle;html=1;whiteSpace=wrap;connectable=0;overflow=hidden;fillColor=none;top=0;left=0;bottom=0;right=0;align=left;fontSize=16;" vertex="1" parent="ib0y8VWLwrtvh4IZrPpm-47">
          <mxGeometry width="187" height="46" as="geometry" />
        </mxCell>
        <mxCell id="ib0y8VWLwrtvh4IZrPpm-49" value="%r9d" style="shape=partialRectangle;html=1;whiteSpace=wrap;connectable=0;overflow=hidden;fillColor=none;top=0;left=0;bottom=0;right=0;align=left;fontSize=16;" vertex="1" parent="ib0y8VWLwrtvh4IZrPpm-47">
          <mxGeometry x="187" width="185" height="46" as="geometry" />
        </mxCell>
        <mxCell id="ib0y8VWLwrtvh4IZrPpm-50" value="%r9w" style="shape=partialRectangle;html=1;whiteSpace=wrap;connectable=0;overflow=hidden;fillColor=none;top=0;left=0;bottom=0;right=0;align=left;fontSize=16;" vertex="1" parent="ib0y8VWLwrtvh4IZrPpm-47">
          <mxGeometry x="372" width="187" height="46" as="geometry" />
        </mxCell>
        <mxCell id="ib0y8VWLwrtvh4IZrPpm-51" value="%r9b" style="shape=partialRectangle;html=1;whiteSpace=wrap;connectable=0;overflow=hidden;fillColor=none;top=0;left=0;bottom=0;right=0;align=left;fontSize=16;" vertex="1" parent="ib0y8VWLwrtvh4IZrPpm-47">
          <mxGeometry x="559" width="185" height="46" as="geometry" />
        </mxCell>
        <mxCell id="ib0y8VWLwrtvh4IZrPpm-52" style="shape=partialRectangle;html=1;whiteSpace=wrap;connectable=0;overflow=hidden;fillColor=none;top=0;left=0;bottom=0;right=0;align=left;fontSize=16;" vertex="1" parent="ib0y8VWLwrtvh4IZrPpm-47">
          <mxGeometry x="744" width="186" height="46" as="geometry" />
        </mxCell>
        <mxCell id="ib0y8VWLwrtvh4IZrPpm-41" style="shape=partialRectangle;html=1;whiteSpace=wrap;collapsible=0;dropTarget=0;pointerEvents=0;fillColor=none;top=0;left=0;bottom=0;right=0;points=[[0,0.5],[1,0.5]];portConstraint=eastwest;align=left;fontSize=16;" vertex="1" parent="ib0y8VWLwrtvh4IZrPpm-1">
          <mxGeometry y="420" width="930" height="46" as="geometry" />
        </mxCell>
        <mxCell id="ib0y8VWLwrtvh4IZrPpm-42" value="%r10" style="shape=partialRectangle;html=1;whiteSpace=wrap;connectable=0;overflow=hidden;fillColor=none;top=0;left=0;bottom=0;right=0;align=left;fontSize=16;" vertex="1" parent="ib0y8VWLwrtvh4IZrPpm-41">
          <mxGeometry width="187" height="46" as="geometry" />
        </mxCell>
        <mxCell id="ib0y8VWLwrtvh4IZrPpm-43" value="%r10d" style="shape=partialRectangle;html=1;whiteSpace=wrap;connectable=0;overflow=hidden;fillColor=none;top=0;left=0;bottom=0;right=0;align=left;fontSize=16;" vertex="1" parent="ib0y8VWLwrtvh4IZrPpm-41">
          <mxGeometry x="187" width="185" height="46" as="geometry" />
        </mxCell>
        <mxCell id="ib0y8VWLwrtvh4IZrPpm-44" value="%r10w" style="shape=partialRectangle;html=1;whiteSpace=wrap;connectable=0;overflow=hidden;fillColor=none;top=0;left=0;bottom=0;right=0;align=left;fontSize=16;" vertex="1" parent="ib0y8VWLwrtvh4IZrPpm-41">
          <mxGeometry x="372" width="187" height="46" as="geometry" />
        </mxCell>
        <mxCell id="ib0y8VWLwrtvh4IZrPpm-45" value="%r10b" style="shape=partialRectangle;html=1;whiteSpace=wrap;connectable=0;overflow=hidden;fillColor=none;top=0;left=0;bottom=0;right=0;align=left;fontSize=16;" vertex="1" parent="ib0y8VWLwrtvh4IZrPpm-41">
          <mxGeometry x="559" width="185" height="46" as="geometry" />
        </mxCell>
        <mxCell id="ib0y8VWLwrtvh4IZrPpm-46" style="shape=partialRectangle;html=1;whiteSpace=wrap;connectable=0;overflow=hidden;fillColor=none;top=0;left=0;bottom=0;right=0;align=left;fontSize=16;" vertex="1" parent="ib0y8VWLwrtvh4IZrPpm-41">
          <mxGeometry x="744" width="186" height="46" as="geometry" />
        </mxCell>
        <mxCell id="ib0y8VWLwrtvh4IZrPpm-35" style="shape=partialRectangle;html=1;whiteSpace=wrap;collapsible=0;dropTarget=0;pointerEvents=0;fillColor=none;top=0;left=0;bottom=0;right=0;points=[[0,0.5],[1,0.5]];portConstraint=eastwest;align=left;fontSize=16;" vertex="1" parent="ib0y8VWLwrtvh4IZrPpm-1">
          <mxGeometry y="466" width="930" height="46" as="geometry" />
        </mxCell>
        <mxCell id="ib0y8VWLwrtvh4IZrPpm-36" value="%r11" style="shape=partialRectangle;html=1;whiteSpace=wrap;connectable=0;overflow=hidden;fillColor=none;top=0;left=0;bottom=0;right=0;align=left;fontSize=16;" vertex="1" parent="ib0y8VWLwrtvh4IZrPpm-35">
          <mxGeometry width="187" height="46" as="geometry" />
        </mxCell>
        <mxCell id="ib0y8VWLwrtvh4IZrPpm-37" value="%r11d" style="shape=partialRectangle;html=1;whiteSpace=wrap;connectable=0;overflow=hidden;fillColor=none;top=0;left=0;bottom=0;right=0;align=left;fontSize=16;" vertex="1" parent="ib0y8VWLwrtvh4IZrPpm-35">
          <mxGeometry x="187" width="185" height="46" as="geometry" />
        </mxCell>
        <mxCell id="ib0y8VWLwrtvh4IZrPpm-38" value="%r11w" style="shape=partialRectangle;html=1;whiteSpace=wrap;connectable=0;overflow=hidden;fillColor=none;top=0;left=0;bottom=0;right=0;align=left;fontSize=16;" vertex="1" parent="ib0y8VWLwrtvh4IZrPpm-35">
          <mxGeometry x="372" width="187" height="46" as="geometry" />
        </mxCell>
        <mxCell id="ib0y8VWLwrtvh4IZrPpm-39" value="%r11b" style="shape=partialRectangle;html=1;whiteSpace=wrap;connectable=0;overflow=hidden;fillColor=none;top=0;left=0;bottom=0;right=0;align=left;fontSize=16;" vertex="1" parent="ib0y8VWLwrtvh4IZrPpm-35">
          <mxGeometry x="559" width="185" height="46" as="geometry" />
        </mxCell>
        <mxCell id="ib0y8VWLwrtvh4IZrPpm-40" style="shape=partialRectangle;html=1;whiteSpace=wrap;connectable=0;overflow=hidden;fillColor=none;top=0;left=0;bottom=0;right=0;align=left;fontSize=16;" vertex="1" parent="ib0y8VWLwrtvh4IZrPpm-35">
          <mxGeometry x="744" width="186" height="46" as="geometry" />
        </mxCell>
        <mxCell id="ib0y8VWLwrtvh4IZrPpm-29" style="shape=partialRectangle;html=1;whiteSpace=wrap;collapsible=0;dropTarget=0;pointerEvents=0;fillColor=none;top=0;left=0;bottom=0;right=0;points=[[0,0.5],[1,0.5]];portConstraint=eastwest;align=left;fontSize=16;" vertex="1" parent="ib0y8VWLwrtvh4IZrPpm-1">
          <mxGeometry y="512" width="930" height="46" as="geometry" />
        </mxCell>
        <mxCell id="ib0y8VWLwrtvh4IZrPpm-30" value="%r12" style="shape=partialRectangle;html=1;whiteSpace=wrap;connectable=0;overflow=hidden;fillColor=none;top=0;left=0;bottom=0;right=0;align=left;fontSize=16;" vertex="1" parent="ib0y8VWLwrtvh4IZrPpm-29">
          <mxGeometry width="187" height="46" as="geometry" />
        </mxCell>
        <mxCell id="ib0y8VWLwrtvh4IZrPpm-31" value="%r12d" style="shape=partialRectangle;html=1;whiteSpace=wrap;connectable=0;overflow=hidden;fillColor=none;top=0;left=0;bottom=0;right=0;align=left;fontSize=16;" vertex="1" parent="ib0y8VWLwrtvh4IZrPpm-29">
          <mxGeometry x="187" width="185" height="46" as="geometry" />
        </mxCell>
        <mxCell id="ib0y8VWLwrtvh4IZrPpm-32" value="%r12w" style="shape=partialRectangle;html=1;whiteSpace=wrap;connectable=0;overflow=hidden;fillColor=none;top=0;left=0;bottom=0;right=0;align=left;fontSize=16;" vertex="1" parent="ib0y8VWLwrtvh4IZrPpm-29">
          <mxGeometry x="372" width="187" height="46" as="geometry" />
        </mxCell>
        <mxCell id="ib0y8VWLwrtvh4IZrPpm-33" value="%r12b" style="shape=partialRectangle;html=1;whiteSpace=wrap;connectable=0;overflow=hidden;fillColor=none;top=0;left=0;bottom=0;right=0;align=left;fontSize=16;" vertex="1" parent="ib0y8VWLwrtvh4IZrPpm-29">
          <mxGeometry x="559" width="185" height="46" as="geometry" />
        </mxCell>
        <mxCell id="ib0y8VWLwrtvh4IZrPpm-34" style="shape=partialRectangle;html=1;whiteSpace=wrap;connectable=0;overflow=hidden;fillColor=none;top=0;left=0;bottom=0;right=0;align=left;fontSize=16;" vertex="1" parent="ib0y8VWLwrtvh4IZrPpm-29">
          <mxGeometry x="744" width="186" height="46" as="geometry" />
        </mxCell>
        <mxCell id="ib0y8VWLwrtvh4IZrPpm-89" style="shape=partialRectangle;html=1;whiteSpace=wrap;collapsible=0;dropTarget=0;pointerEvents=0;fillColor=none;top=0;left=0;bottom=0;right=0;points=[[0,0.5],[1,0.5]];portConstraint=eastwest;align=left;fontSize=16;" vertex="1" parent="ib0y8VWLwrtvh4IZrPpm-1">
          <mxGeometry y="558" width="930" height="46" as="geometry" />
        </mxCell>
        <mxCell id="ib0y8VWLwrtvh4IZrPpm-90" value="%r13" style="shape=partialRectangle;html=1;whiteSpace=wrap;connectable=0;overflow=hidden;fillColor=none;top=0;left=0;bottom=0;right=0;align=left;fontSize=16;" vertex="1" parent="ib0y8VWLwrtvh4IZrPpm-89">
          <mxGeometry width="187" height="46" as="geometry" />
        </mxCell>
        <mxCell id="ib0y8VWLwrtvh4IZrPpm-91" value="%r13d" style="shape=partialRectangle;html=1;whiteSpace=wrap;connectable=0;overflow=hidden;fillColor=none;top=0;left=0;bottom=0;right=0;align=left;fontSize=16;" vertex="1" parent="ib0y8VWLwrtvh4IZrPpm-89">
          <mxGeometry x="187" width="185" height="46" as="geometry" />
        </mxCell>
        <mxCell id="ib0y8VWLwrtvh4IZrPpm-92" value="%13w" style="shape=partialRectangle;html=1;whiteSpace=wrap;connectable=0;overflow=hidden;fillColor=none;top=0;left=0;bottom=0;right=0;align=left;fontSize=16;" vertex="1" parent="ib0y8VWLwrtvh4IZrPpm-89">
          <mxGeometry x="372" width="187" height="46" as="geometry" />
        </mxCell>
        <mxCell id="ib0y8VWLwrtvh4IZrPpm-93" value="%r13b" style="shape=partialRectangle;html=1;whiteSpace=wrap;connectable=0;overflow=hidden;fillColor=none;top=0;left=0;bottom=0;right=0;align=left;fontSize=16;" vertex="1" parent="ib0y8VWLwrtvh4IZrPpm-89">
          <mxGeometry x="559" width="185" height="46" as="geometry" />
        </mxCell>
        <mxCell id="ib0y8VWLwrtvh4IZrPpm-94" style="shape=partialRectangle;html=1;whiteSpace=wrap;connectable=0;overflow=hidden;fillColor=none;top=0;left=0;bottom=0;right=0;align=left;fontSize=16;" vertex="1" parent="ib0y8VWLwrtvh4IZrPpm-89">
          <mxGeometry x="744" width="186" height="46" as="geometry" />
        </mxCell>
        <mxCell id="ib0y8VWLwrtvh4IZrPpm-83" style="shape=partialRectangle;html=1;whiteSpace=wrap;collapsible=0;dropTarget=0;pointerEvents=0;fillColor=none;top=0;left=0;bottom=0;right=0;points=[[0,0.5],[1,0.5]];portConstraint=eastwest;align=left;fontSize=16;" vertex="1" parent="ib0y8VWLwrtvh4IZrPpm-1">
          <mxGeometry y="604" width="930" height="46" as="geometry" />
        </mxCell>
        <mxCell id="ib0y8VWLwrtvh4IZrPpm-84" value="%r14" style="shape=partialRectangle;html=1;whiteSpace=wrap;connectable=0;overflow=hidden;fillColor=none;top=0;left=0;bottom=0;right=0;align=left;fontSize=16;" vertex="1" parent="ib0y8VWLwrtvh4IZrPpm-83">
          <mxGeometry width="187" height="46" as="geometry" />
        </mxCell>
        <mxCell id="ib0y8VWLwrtvh4IZrPpm-85" value="%r14d" style="shape=partialRectangle;html=1;whiteSpace=wrap;connectable=0;overflow=hidden;fillColor=none;top=0;left=0;bottom=0;right=0;align=left;fontSize=16;" vertex="1" parent="ib0y8VWLwrtvh4IZrPpm-83">
          <mxGeometry x="187" width="185" height="46" as="geometry" />
        </mxCell>
        <mxCell id="ib0y8VWLwrtvh4IZrPpm-86" value="%r14w" style="shape=partialRectangle;html=1;whiteSpace=wrap;connectable=0;overflow=hidden;fillColor=none;top=0;left=0;bottom=0;right=0;align=left;fontSize=16;" vertex="1" parent="ib0y8VWLwrtvh4IZrPpm-83">
          <mxGeometry x="372" width="187" height="46" as="geometry" />
        </mxCell>
        <mxCell id="ib0y8VWLwrtvh4IZrPpm-87" value="%14b" style="shape=partialRectangle;html=1;whiteSpace=wrap;connectable=0;overflow=hidden;fillColor=none;top=0;left=0;bottom=0;right=0;align=left;fontSize=16;" vertex="1" parent="ib0y8VWLwrtvh4IZrPpm-83">
          <mxGeometry x="559" width="185" height="46" as="geometry" />
        </mxCell>
        <mxCell id="ib0y8VWLwrtvh4IZrPpm-88" style="shape=partialRectangle;html=1;whiteSpace=wrap;connectable=0;overflow=hidden;fillColor=none;top=0;left=0;bottom=0;right=0;align=left;fontSize=16;" vertex="1" parent="ib0y8VWLwrtvh4IZrPpm-83">
          <mxGeometry x="744" width="186" height="46" as="geometry" />
        </mxCell>
        <mxCell id="ib0y8VWLwrtvh4IZrPpm-77" style="shape=partialRectangle;html=1;whiteSpace=wrap;collapsible=0;dropTarget=0;pointerEvents=0;fillColor=none;top=0;left=0;bottom=0;right=0;points=[[0,0.5],[1,0.5]];portConstraint=eastwest;align=left;fontSize=16;" vertex="1" parent="ib0y8VWLwrtvh4IZrPpm-1">
          <mxGeometry y="650" width="930" height="46" as="geometry" />
        </mxCell>
        <mxCell id="ib0y8VWLwrtvh4IZrPpm-78" value="%r15" style="shape=partialRectangle;html=1;whiteSpace=wrap;connectable=0;overflow=hidden;fillColor=none;top=0;left=0;bottom=0;right=0;align=left;fontSize=16;" vertex="1" parent="ib0y8VWLwrtvh4IZrPpm-77">
          <mxGeometry width="187" height="46" as="geometry" />
        </mxCell>
        <mxCell id="ib0y8VWLwrtvh4IZrPpm-79" value="%r15d" style="shape=partialRectangle;html=1;whiteSpace=wrap;connectable=0;overflow=hidden;fillColor=none;top=0;left=0;bottom=0;right=0;align=left;fontSize=16;" vertex="1" parent="ib0y8VWLwrtvh4IZrPpm-77">
          <mxGeometry x="187" width="185" height="46" as="geometry" />
        </mxCell>
        <mxCell id="ib0y8VWLwrtvh4IZrPpm-80" value="%15w" style="shape=partialRectangle;html=1;whiteSpace=wrap;connectable=0;overflow=hidden;fillColor=none;top=0;left=0;bottom=0;right=0;align=left;fontSize=16;" vertex="1" parent="ib0y8VWLwrtvh4IZrPpm-77">
          <mxGeometry x="372" width="187" height="46" as="geometry" />
        </mxCell>
        <mxCell id="ib0y8VWLwrtvh4IZrPpm-81" value="%r15b" style="shape=partialRectangle;html=1;whiteSpace=wrap;connectable=0;overflow=hidden;fillColor=none;top=0;left=0;bottom=0;right=0;align=left;fontSize=16;" vertex="1" parent="ib0y8VWLwrtvh4IZrPpm-77">
          <mxGeometry x="559" width="185" height="46" as="geometry" />
        </mxCell>
        <mxCell id="ib0y8VWLwrtvh4IZrPpm-82" style="shape=partialRectangle;html=1;whiteSpace=wrap;connectable=0;overflow=hidden;fillColor=none;top=0;left=0;bottom=0;right=0;align=left;fontSize=16;" vertex="1" parent="ib0y8VWLwrtvh4IZrPpm-77">
          <mxGeometry x="744" width="186" height="46" as="geometry" />
        </mxCell>
        <mxCell id="1516e18e63f93b96-4" value="" style="whiteSpace=wrap;html=1;rounded=0;shadow=0;strokeWidth=1;fontSize=16;align=left;" parent="1" vertex="1">
          <mxGeometry x="1400" y="1140" width="60" height="50" as="geometry" />
        </mxCell>
        <mxCell id="1516e18e63f93b96-5" value="Relation 8" style="whiteSpace=wrap;html=1;rounded=0;shadow=0;strokeWidth=1;fontSize=16;align=left;" parent="1" vertex="1">
          <mxGeometry x="1460" y="1140" width="210" height="50" as="geometry" />
        </mxCell>
        <mxCell id="1516e18e63f93b96-12" value="" style="rhombus;whiteSpace=wrap;html=1;rounded=0;shadow=0;strokeWidth=3;fillColor=#000000;fontSize=16;align=left;" parent="1" vertex="1">
          <mxGeometry x="1415" y="1150" width="30" height="30" as="geometry" />
        </mxCell>
        <mxCell id="1516e18e63f93b96-14" value="" style="whiteSpace=wrap;html=1;rounded=0;shadow=0;strokeWidth=1;fontSize=16;align=left;" parent="1" vertex="1">
          <mxGeometry x="1400" y="1090" width="60" height="50" as="geometry" />
        </mxCell>
        <mxCell id="1516e18e63f93b96-15" value="Relation 7" style="whiteSpace=wrap;html=1;rounded=0;shadow=0;strokeWidth=1;fontSize=16;align=left;" parent="1" vertex="1">
          <mxGeometry x="1460" y="1090" width="210" height="50" as="geometry" />
        </mxCell>
        <mxCell id="1516e18e63f93b96-18" value="" style="whiteSpace=wrap;html=1;rounded=0;shadow=0;strokeWidth=1;fontSize=16;align=left;" parent="1" vertex="1">
          <mxGeometry x="1400" y="1040" width="60" height="50" as="geometry" />
        </mxCell>
        <mxCell id="1516e18e63f93b96-19" value="Relation 6" style="whiteSpace=wrap;html=1;rounded=0;shadow=0;strokeWidth=1;fontSize=16;align=left;" parent="1" vertex="1">
          <mxGeometry x="1460" y="1040" width="210" height="50" as="geometry" />
        </mxCell>
        <mxCell id="1516e18e63f93b96-20" value="" style="whiteSpace=wrap;html=1;rounded=0;shadow=0;strokeWidth=1;fontSize=16;align=left;" parent="1" vertex="1">
          <mxGeometry x="1400" y="990" width="60" height="50" as="geometry" />
        </mxCell>
        <mxCell id="1516e18e63f93b96-21" value="Relation 5" style="whiteSpace=wrap;html=1;rounded=0;shadow=0;strokeWidth=1;fontSize=16;align=left;" parent="1" vertex="1">
          <mxGeometry x="1460" y="990" width="210" height="50" as="geometry" />
        </mxCell>
        <mxCell id="1516e18e63f93b96-22" value="" style="whiteSpace=wrap;html=1;rounded=0;shadow=0;strokeWidth=1;fontSize=16;align=left;" parent="1" vertex="1">
          <mxGeometry x="1400" y="940" width="60" height="50" as="geometry" />
        </mxCell>
        <mxCell id="1516e18e63f93b96-23" value="Relation 4" style="whiteSpace=wrap;html=1;rounded=0;shadow=0;strokeWidth=1;fontSize=16;align=left;" parent="1" vertex="1">
          <mxGeometry x="1460" y="940" width="210" height="50" as="geometry" />
        </mxCell>
        <mxCell id="1516e18e63f93b96-24" value="" style="whiteSpace=wrap;html=1;rounded=0;shadow=0;strokeWidth=1;fontSize=16;align=left;" parent="1" vertex="1">
          <mxGeometry x="1400" y="890" width="60" height="50" as="geometry" />
        </mxCell>
        <mxCell id="1516e18e63f93b96-25" value="Relation 3" style="whiteSpace=wrap;html=1;rounded=0;shadow=0;strokeWidth=1;fontSize=16;align=left;" parent="1" vertex="1">
          <mxGeometry x="1460" y="890" width="210" height="50" as="geometry" />
        </mxCell>
        <mxCell id="1516e18e63f93b96-26" value="" style="whiteSpace=wrap;html=1;rounded=0;shadow=0;strokeWidth=1;fontSize=16;align=left;" parent="1" vertex="1">
          <mxGeometry x="1400" y="840" width="60" height="50" as="geometry" />
        </mxCell>
        <mxCell id="1516e18e63f93b96-27" value="Relation 2" style="whiteSpace=wrap;html=1;rounded=0;shadow=0;strokeWidth=1;fontSize=16;align=left;" parent="1" vertex="1">
          <mxGeometry x="1460" y="840" width="210" height="50" as="geometry" />
        </mxCell>
        <mxCell id="1516e18e63f93b96-28" value="" style="whiteSpace=wrap;html=1;rounded=0;shadow=0;strokeWidth=1;fontSize=16;align=left;" parent="1" vertex="1">
          <mxGeometry x="1400" y="790" width="60" height="50" as="geometry" />
        </mxCell>
        <mxCell id="1516e18e63f93b96-29" value="Relation 1" style="whiteSpace=wrap;html=1;rounded=0;shadow=0;strokeWidth=1;fontSize=16;align=left;" parent="1" vertex="1">
          <mxGeometry x="1460" y="790" width="210" height="50" as="geometry" />
        </mxCell>
        <mxCell id="1516e18e63f93b96-6" value="" style="ellipse;whiteSpace=wrap;html=1;rounded=0;shadow=0;strokeWidth=3;fontSize=16;align=left;" parent="1" vertex="1">
          <mxGeometry x="1415" y="800" width="30" height="30" as="geometry" />
        </mxCell>
        <mxCell id="1516e18e63f93b96-7" value="" style="ellipse;whiteSpace=wrap;html=1;rounded=0;shadow=0;strokeWidth=3;fontSize=16;fillColor=#000000;align=left;" parent="1" vertex="1">
          <mxGeometry x="1415" y="850" width="30" height="30" as="geometry" />
        </mxCell>
        <mxCell id="1516e18e63f93b96-8" value="" style="triangle;whiteSpace=wrap;html=1;rounded=0;shadow=0;strokeWidth=3;fillColor=#000000;fontSize=16;direction=north;align=left;" parent="1" vertex="1">
          <mxGeometry x="1415" y="950" width="30" height="30" as="geometry" />
        </mxCell>
        <mxCell id="1516e18e63f93b96-9" value="" style="triangle;whiteSpace=wrap;html=1;rounded=0;shadow=0;strokeWidth=3;fontSize=16;direction=north;align=left;" parent="1" vertex="1">
          <mxGeometry x="1415" y="900" width="30" height="30" as="geometry" />
        </mxCell>
        <mxCell id="1516e18e63f93b96-10" value="" style="whiteSpace=wrap;html=1;rounded=0;shadow=0;strokeWidth=3;fontSize=16;align=left;" parent="1" vertex="1">
          <mxGeometry x="1415" y="1000" width="30" height="30" as="geometry" />
        </mxCell>
        <mxCell id="1516e18e63f93b96-11" value="" style="whiteSpace=wrap;html=1;rounded=0;shadow=0;strokeWidth=3;fillColor=#000000;fontSize=16;align=left;" parent="1" vertex="1">
          <mxGeometry x="1415" y="1050" width="30" height="30" as="geometry" />
        </mxCell>
        <mxCell id="1516e18e63f93b96-13" value="" style="rhombus;whiteSpace=wrap;html=1;rounded=0;shadow=0;strokeWidth=3;fontSize=16;align=left;" parent="1" vertex="1">
          <mxGeometry x="1415" y="1100" width="30" height="30" as="geometry" />
        </mxCell>
        <mxCell id="ib0y8VWLwrtvh4IZrPpm-95" value="63" style="text;html=1;strokeColor=none;fillColor=none;align=center;verticalAlign=middle;whiteSpace=wrap;rounded=0;fontSize=16;" vertex="1" parent="1">
          <mxGeometry x="200" y="30" width="40" height="20" as="geometry" />
        </mxCell>
        <mxCell id="ib0y8VWLwrtvh4IZrPpm-96" value="31" style="text;html=1;strokeColor=none;fillColor=none;align=center;verticalAlign=middle;whiteSpace=wrap;rounded=0;fontSize=16;" vertex="1" parent="1">
          <mxGeometry x="380" y="30" width="40" height="20" as="geometry" />
        </mxCell>
        <mxCell id="ib0y8VWLwrtvh4IZrPpm-97" value="15" style="text;html=1;strokeColor=none;fillColor=none;align=center;verticalAlign=middle;whiteSpace=wrap;rounded=0;fontSize=16;" vertex="1" parent="1">
          <mxGeometry x="570" y="30" width="40" height="20" as="geometry" />
        </mxCell>
        <mxCell id="ib0y8VWLwrtvh4IZrPpm-98" value="7" style="text;html=1;strokeColor=none;fillColor=none;align=center;verticalAlign=middle;whiteSpace=wrap;rounded=0;fontSize=16;" vertex="1" parent="1">
          <mxGeometry x="750" y="30" width="40" height="20" as="geometry" />
        </mxCell>
        <mxCell id="ib0y8VWLwrtvh4IZrPpm-99" value="0" style="text;html=1;strokeColor=none;fillColor=none;align=center;verticalAlign=middle;whiteSpace=wrap;rounded=0;fontSize=16;" vertex="1" parent="1">
          <mxGeometry x="920" y="30" width="40" height="20" as="geometry" />
        </mxCell>
      </root>
    </mxGraphModel>
  </diagram>
</mxfile>
